<svg width="24" height="39" viewBox="0 0 24 39" fill="none" xmlns="http://www.w3.org/2000/svg">
<g opacity="0.7">
<path fill-rule="evenodd" clip-rule="evenodd" d="M15.5676 0.0150537C15.5676 0.00673976 15.5608 0 15.5525 0H2C0.89543 0 0 0.89543 0 2V16.5C0 17.6046 0.89543 18.5 2 18.5H15.5525C15.5608 18.5 15.5676 18.4933 15.5676 18.4849C15.5676 18.4761 15.5752 18.4691 15.5841 18.4699C15.7926 18.4899 16.0034 18.5 16.2162 18.5C20.515 18.5 23.9999 14.3586 23.9999 9.25C23.9999 4.14137 20.515 0 16.2162 0C16.0034 0 15.7926 0.0101471 15.5841 0.0300563C15.5752 0.0309019 15.5676 0.023948 15.5676 0.0150537Z" fill="url(#paint0_linear_3551_2051)"/>
<path fill-rule="evenodd" clip-rule="evenodd" d="M15.5676 20.5151C15.5676 20.5067 15.5608 20.5 15.5525 20.5H2C0.89543 20.5 0 21.3954 0 22.5V37C0 38.1046 0.89543 39 2 39H15.5525C15.5608 39 15.5676 38.9933 15.5676 38.9849C15.5676 38.9761 15.5752 38.9691 15.5841 38.9699C15.7926 38.9899 16.0034 39 16.2162 39C20.515 39 23.9999 34.8586 23.9999 29.75C23.9999 24.6414 20.515 20.5 16.2162 20.5C16.0034 20.5 15.7926 20.5101 15.5841 20.5301C15.5752 20.5309 15.5676 20.5239 15.5676 20.5151Z" fill="url(#paint1_linear_3551_2051)"/>
</g>
<defs>
<linearGradient id="paint0_linear_3551_2051" x1="12" y1="14" x2="12" y2="-2.34356e-07" gradientUnits="userSpaceOnUse">
<stop stop-color="#CFECED"/>
<stop offset="1" stop-color="#CFECED"/>
</linearGradient>
<linearGradient id="paint1_linear_3551_2051" x1="12" y1="34.5" x2="12" y2="20.5" gradientUnits="userSpaceOnUse">
<stop stop-color="#CFECED"/>
<stop offset="1" stop-color="#CFECED"/>
</linearGradient>
</defs>
</svg>
