<svg width="29" height="39" viewBox="0 0 29 39" fill="none" xmlns="http://www.w3.org/2000/svg">
<g opacity="0.7">
<path d="M0 2C0 0.89543 0.89543 0 2 0H8.37838C9.48295 0 10.3784 0.894373 10.3784 1.99894C10.3784 5.70901 10.3784 13.8004 10.3784 19.5C10.3784 25.1996 10.3784 33.291 10.3784 37.0011C10.3784 38.1056 9.48295 39 8.37838 39H2C0.895428 39 0 38.1046 0 37V2Z" fill="url(#paint0_linear_3640_350)"/>
<path fill-rule="evenodd" clip-rule="evenodd" d="M22.7568 0.0100358C22.7568 0.00449318 22.7523 0 22.7468 0H14.3784C13.2738 0 12.3784 0.895429 12.3784 2V10.3333C12.3784 11.4379 13.2738 12.3333 14.3784 12.3333H22.7468C22.7523 12.3333 22.7568 12.3288 22.7568 12.3233C22.7568 12.3174 22.7619 12.3127 22.7678 12.3133C22.9068 12.3266 23.0473 12.3333 23.1892 12.3333C26.0551 12.3333 28.3784 9.57242 28.3784 6.16667C28.3784 2.76091 26.0551 0 23.1892 0C23.0473 0 22.9068 0.00676474 22.7678 0.0200376C22.7619 0.0206013 22.7568 0.0159654 22.7568 0.0100358Z" fill="url(#paint1_linear_3640_350)"/>
<path fill-rule="evenodd" clip-rule="evenodd" d="M22.7568 14.3433C22.7568 14.3378 22.7523 14.3333 22.7468 14.3333H14.3784C13.2738 14.3333 12.3784 15.2287 12.3784 16.3333V24.6633C12.3784 25.7679 13.2738 26.6633 14.3784 26.6633H22.7468C22.7523 26.6633 22.7568 26.6588 22.7568 26.6533C22.7568 26.6474 22.7619 26.6427 22.7678 26.6433C22.9068 26.6565 23.0473 26.6633 23.1892 26.6633C26.0551 26.6633 28.3784 23.9031 28.3784 20.4983C28.3784 17.0935 26.0551 14.3333 23.1892 14.3333C23.0473 14.3333 22.9068 14.3401 22.7678 14.3533C22.7619 14.3539 22.7568 14.3493 22.7568 14.3433Z" fill="url(#paint2_linear_3640_350)"/>
</g>
<defs>
<linearGradient id="paint0_linear_3640_350" x1="5.18919" y1="29.5135" x2="5.18915" y2="-4.93988e-07" gradientUnits="userSpaceOnUse">
<stop stop-color="#CFECED"/>
<stop offset="1" stop-color="#CFECED"/>
</linearGradient>
<linearGradient id="paint1_linear_3640_350" x1="20.3784" y1="9.33333" x2="20.3784" y2="-1.56237e-07" gradientUnits="userSpaceOnUse">
<stop stop-color="#CFECED"/>
<stop offset="1" stop-color="#CFECED"/>
</linearGradient>
<linearGradient id="paint2_linear_3640_350" x1="20.3784" y1="23.6641" x2="20.3784" y2="14.3333" gradientUnits="userSpaceOnUse">
<stop stop-color="#CFECED"/>
<stop offset="1" stop-color="#CFECED"/>
</linearGradient>
</defs>
</svg>
