<svg width="16" height="16" viewBox="0 0 16 16" fill="none" xmlns="http://www.w3.org/2000/svg">
<path d="M15.7262 7.75665H14.3726C14.9354 6.47909 14.8745 5.44487 14.6616 4.74525C14.2966 3.4981 13.0646 2.14449 11.2395 2.14449C10.7529 2.14449 10.2662 2.23574 9.76426 2.41825C8.89734 2.73764 8.31939 3.08745 8.06084 3.26996C7.80228 3.08745 7.23954 2.73764 6.35741 2.41825C5.85551 2.23574 5.35361 2.14449 4.88213 2.14449C3.05703 2.14449 1.8251 3.4981 1.46008 4.74525C1.24715 5.49049 1.1711 6.61597 1.88593 8.03042H0.243346C0.106464 8.03042 0 8.13688 0 8.27376C0 8.41065 0.106464 8.51711 0.243346 8.51711H2.17491C2.25095 8.65399 2.34221 8.79087 2.44867 8.92775C4.03042 11.2091 7.46768 13.6882 8.09126 13.8403V13.8555C8.09126 13.8555 8.10646 13.8555 8.12167 13.8403C8.13688 13.8403 8.15209 13.8403 8.1673 13.8403V13.8251C8.69962 13.5665 12 11.4373 13.7338 8.91255C13.9011 8.68441 14.038 8.45627 14.1597 8.22814H15.7567C15.8935 8.22814 16 8.12167 16 7.98479C16 7.84791 15.8631 7.75665 15.7262 7.75665ZM13.2928 8.65399C11.6806 11.0114 8.71483 12.9125 8.07605 13.3232C7.42205 12.9125 4.47148 10.9962 2.84411 8.65399C2.81369 8.60836 2.78327 8.56274 2.75285 8.51711H4.98859C5.07985 8.51711 5.1711 8.47148 5.21673 8.38023L6.23574 6.37262L7.8327 10.4639C7.86312 10.5551 7.96958 10.616 8.06084 10.616C8.06084 10.616 8.06084 10.616 8.07605 10.616C8.18251 10.616 8.27376 10.5399 8.30418 10.4335L9.70342 5.64258L10.4487 8.06084C10.4791 8.15209 10.5551 8.21293 10.6464 8.22814C10.7376 8.24334 10.8289 8.19772 10.8897 8.12167L11.4829 7.25475L11.9848 8.10646C12.0304 8.18251 12.1065 8.22814 12.1977 8.22814H13.5665C13.4753 8.38023 13.384 8.51711 13.2928 8.65399ZM13.8403 7.75665H12.3498L11.7262 6.69201C11.6806 6.61597 11.6046 6.57034 11.5133 6.57034C11.4221 6.57034 11.346 6.60076 11.3004 6.67681L10.7833 7.43726L9.94677 4.71483C9.91635 4.60836 9.80989 4.54753 9.70342 4.53232C9.59696 4.53232 9.49049 4.60836 9.46008 4.71483L8.04563 9.59696L6.50951 5.673C6.47909 5.58175 6.38783 5.52091 6.29658 5.52091C6.19011 5.52091 6.11407 5.56654 6.06844 5.65779L4.86692 8.01521H2.44867C1.8403 6.90494 1.673 5.8403 1.94677 4.88213C2.26616 3.80228 3.31559 2.64639 4.89734 2.64639C5.32319 2.64639 5.76426 2.73764 6.20532 2.88973C7.31559 3.30038 7.90875 3.77186 7.92395 3.77186C8.01521 3.84791 8.13688 3.84791 8.22814 3.77186C8.22814 3.77186 8.82129 3.30038 9.94677 2.88973C10.3878 2.72243 10.8289 2.64639 11.2548 2.64639C12.8213 2.64639 13.8859 3.80228 14.2053 4.88213C14.4639 5.76426 14.327 6.73764 13.8403 7.75665Z" fill="url(#paint0_linear_3544_2147)"/>
<defs>
<linearGradient id="paint0_linear_3544_2147" x1="8" y1="11.0069" x2="8" y2="2.14449" gradientUnits="userSpaceOnUse">
<stop stop-color="#CFECED"/>
<stop offset="1" stop-color="#CFECED"/>
</linearGradient>
</defs>
</svg>
