<svg width="24" height="24" viewBox="0 0 24 24" fill="none" xmlns="http://www.w3.org/2000/svg">
<path d="M23.5894 11.635H21.5589C22.403 9.71863 22.3118 8.1673 21.9924 7.11787C21.4449 5.24715 19.597 3.21673 16.8593 3.21673C16.1293 3.21673 15.3992 3.35361 14.6464 3.62738C13.346 4.10646 12.4791 4.63118 12.0913 4.90494C11.7034 4.63118 10.8593 4.10646 9.53612 3.62738C8.78327 3.35361 8.03042 3.21673 7.32319 3.21673C4.58555 3.21673 2.73764 5.24715 2.19011 7.11787C1.87072 8.23574 1.75665 9.92395 2.8289 12.0456H0.365019C0.159696 12.0456 0 12.2053 0 12.4106C0 12.616 0.159696 12.7757 0.365019 12.7757H3.26236C3.37643 12.981 3.51331 13.1863 3.673 13.3916C6.04563 16.8137 11.2015 20.5323 12.1369 20.7605V20.7833C12.1369 20.7833 12.1597 20.7833 12.1825 20.7605C12.2053 20.7605 12.2281 20.7605 12.251 20.7605V20.7376C13.0494 20.3498 18 17.1559 20.6008 13.3688C20.8517 13.0266 21.057 12.6844 21.2395 12.3422H23.635C23.8403 12.3422 24 12.1825 24 11.9772C24 11.7719 23.7947 11.635 23.5894 11.635ZM19.9392 12.981C17.5209 16.5171 13.0722 19.3688 12.1141 19.9848C11.1331 19.3688 6.70722 16.4943 4.26616 12.981C4.22053 12.9125 4.1749 12.8441 4.12928 12.7757H7.48289C7.61977 12.7757 7.75665 12.7072 7.82509 12.5703L9.35361 9.55894L11.749 15.6958C11.7947 15.8327 11.9544 15.924 12.0913 15.924C12.0913 15.924 12.0913 15.924 12.1141 15.924C12.2738 15.924 12.4106 15.8099 12.4563 15.6502L14.5551 8.46388L15.673 12.0913C15.7186 12.2281 15.8327 12.3194 15.9696 12.3422C16.1065 12.365 16.2433 12.2966 16.3346 12.1825L17.2243 10.8821L17.9772 12.1597C18.0456 12.2738 18.1597 12.3422 18.2966 12.3422H20.3498C20.2129 12.5703 20.076 12.7757 19.9392 12.981ZM20.7605 11.635H18.5247L17.5894 10.038C17.5209 9.92395 17.4068 9.85551 17.27 9.85551C17.1331 9.85551 17.019 9.90114 16.9506 10.0152L16.1749 11.1559L14.9202 7.07224C14.8745 6.91255 14.7148 6.82129 14.5551 6.79848C14.3954 6.79848 14.2357 6.91255 14.1901 7.07224L12.0684 14.3954L9.76426 8.50951C9.71863 8.37262 9.58175 8.28137 9.44487 8.28137C9.28517 8.28137 9.1711 8.34981 9.10266 8.48669L7.30038 12.0228H3.673C2.76046 10.3574 2.50951 8.76046 2.92015 7.32319C3.39924 5.70342 4.97338 3.96958 7.34601 3.96958C7.98479 3.96958 8.64639 4.10646 9.30798 4.3346C10.9734 4.95057 11.8631 5.65779 11.8859 5.65779C12.0228 5.77186 12.2053 5.77186 12.3422 5.65779C12.3422 5.65779 13.2319 4.95057 14.9202 4.3346C15.5817 4.08365 16.2433 3.96958 16.8821 3.96958C19.2319 3.96958 20.8289 5.70342 21.308 7.32319C21.6958 8.64639 21.4905 10.1065 20.7605 11.635Z" fill="url(#paint0_linear_3534_892)"/>
<defs>
<linearGradient id="paint0_linear_3534_892" x1="12" y1="16.5103" x2="12" y2="3.21673" gradientUnits="userSpaceOnUse">
<stop stop-color="#CFECED"/>
<stop offset="1" stop-color="#CFECED"/>
</linearGradient>
</defs>
</svg>
