<svg width="16" height="16" viewBox="0 0 16 16" fill="none" xmlns="http://www.w3.org/2000/svg">
<path fill-rule="evenodd" clip-rule="evenodd" d="M7.9998 15.9991C7.67767 15.9991 0.027454 13.0829 1.98065 8.86467C3.77859 4.98153 1.69255 3.5673 1.67118 3.55343C1.58024 3.49436 1.5583 3.36996 1.62365 3.28343L3.81234 0.377727C3.86513 0.307695 3.95934 0.283414 4.03922 0.319601C4.82504 0.674259 5.53473 0.853978 6.14888 0.853978C7.40148 0.853978 7.83189 0.105101 7.83602 0.097413C7.90417 -0.0271812 8.08896 -0.034775 8.16367 0.097413C8.18083 0.127226 8.61124 0.853978 9.85099 0.853978C10.4651 0.853978 11.1747 0.674165 11.9607 0.319601C12.0403 0.283507 12.1347 0.307601 12.1874 0.377727L14.3762 3.28343C14.4418 3.37043 14.4194 3.4938 14.3287 3.55343C14.2428 3.61033 12.2299 4.99981 14.0192 8.86467C15.972 13.0829 8.32193 15.9991 7.9998 15.9991ZM2.03399 3.36171C2.54203 3.80111 3.97603 5.44737 2.32078 9.02235C0.529112 12.8916 7.8738 15.6192 7.9998 15.6192C8.12561 15.6192 15.4703 12.8918 13.6789 9.02235C12.0237 5.44737 13.4578 3.80111 13.9656 3.36171L11.9772 0.721884C10.5412 1.34064 8.91752 1.51998 7.9998 0.498477C7.08189 1.52007 5.45851 1.34064 4.02234 0.721884L2.03399 3.36171Z" fill="url(#paint0_linear_3544_2151)"/>
<path fill-rule="evenodd" clip-rule="evenodd" d="M7.99978 15.2126C7.80918 15.2126 1.07884 12.597 2.66107 9.17975C3.28441 7.8334 4.10829 5.29699 2.62291 3.43707C2.56947 3.37014 2.56807 3.27564 2.61963 3.20729L4.06301 1.29113C4.11288 1.22504 4.20054 1.19925 4.27789 1.22813C5.29976 1.60622 6.75599 1.88888 7.89187 1.0891C8.09278 0.947347 8.30878 1.2541 8.10768 1.39557C7.13108 2.08323 5.80958 2.16263 4.27939 1.62704L3.00504 3.31876C4.49445 5.32239 3.64845 7.93944 3.00119 9.33735C1.79538 11.9416 6.3148 14.1957 8.06531 14.8495C8.2604 14.9224 8.2065 15.2126 7.99959 15.2126H7.99978Z" fill="url(#paint1_linear_3544_2151)"/>
<path fill-rule="evenodd" clip-rule="evenodd" d="M8.75402 11.1706H7.24557C7.04054 11.1706 6.87385 11.0039 6.87385 10.7989V9.12614H5.20107C4.99603 9.12614 4.82935 8.95935 4.82935 8.75442V7.24588C4.82935 7.04094 4.99613 6.87416 5.20107 6.87416L6.87385 6.87425V5.20137C6.87385 4.99634 7.04064 4.82965 7.24557 4.82965H8.75402C8.95896 4.82965 9.12574 4.99643 9.12574 5.20137V6.87416L10.7986 6.87425C11.0036 6.87425 11.1703 7.04103 11.1703 7.24597V8.75451C11.1703 8.95945 11.0036 9.12623 10.7986 9.12623H9.12583V10.799C9.12583 11.0039 8.95905 11.1707 8.75402 11.1707V11.1706ZM7.06117 8.75104C7.16467 8.75104 7.24867 8.83514 7.24867 8.93854V10.7988L8.75064 10.7955V8.93864C8.75064 8.83514 8.83474 8.75114 8.93814 8.75114H10.7985L10.7952 7.24588L8.93814 7.24916C8.83464 7.24916 8.75064 7.16516 8.75064 7.06166L8.75055 5.20128L7.24548 5.20437L7.24857 7.06147C7.24857 7.16497 7.16457 7.24897 7.06107 7.24897H5.20088L5.20397 8.75423L7.06098 8.75095L7.06117 8.75104Z" fill="url(#paint2_linear_3544_2151)"/>
<defs>
<linearGradient id="paint0_linear_3544_2151" x1="7.99995" y1="12.1077" x2="7.99995" y2="0.00109843" gradientUnits="userSpaceOnUse">
<stop stop-color="#CFECED"/>
<stop offset="1" stop-color="#CFECED"/>
</linearGradient>
<linearGradient id="paint1_linear_3544_2151" x1="5.3042" y1="11.7683" x2="5.30419" y2="1.05257" gradientUnits="userSpaceOnUse">
<stop stop-color="#CFECED"/>
<stop offset="1" stop-color="#CFECED"/>
</linearGradient>
<linearGradient id="paint2_linear_3544_2151" x1="7.99984" y1="9.62831" x2="7.99984" y2="4.82965" gradientUnits="userSpaceOnUse">
<stop stop-color="#CFECED"/>
<stop offset="1" stop-color="#CFECED"/>
</linearGradient>
</defs>
</svg>
