<svg width="24" height="24" viewBox="0 0 24 24" fill="none" xmlns="http://www.w3.org/2000/svg">
<path fill-rule="evenodd" clip-rule="evenodd" d="M11.9998 23.9986C11.5166 23.9986 0.0413032 19.6243 2.9711 13.297C5.66801 7.47228 2.53895 5.35094 2.50689 5.33013C2.37048 5.24154 2.33758 5.05493 2.43559 4.92513L5.71864 0.56658C5.79781 0.461533 5.93914 0.425111 6.05895 0.479393C7.23768 1.01138 8.30221 1.28096 9.22345 1.28096C11.1023 1.28096 11.748 0.157641 11.7541 0.14611C11.8564 -0.0407814 12.1336 -0.052172 12.2456 0.14611C12.2714 0.190829 12.917 1.28096 14.7766 1.28096C15.6977 1.28096 16.7622 1.01124 17.9411 0.479393C18.0606 0.425252 18.2021 0.461393 18.2813 0.56658L21.5645 4.92513C21.6628 5.05563 21.6293 5.24069 21.4932 5.33013C21.3644 5.41549 18.345 7.4997 21.029 13.297C23.9582 19.6243 12.483 23.9986 11.9998 23.9986ZM3.05111 5.04255C3.81316 5.70166 5.96417 8.17105 3.48129 13.5335C0.79379 19.3374 11.8108 23.4288 11.9998 23.4288C12.1885 23.4288 23.2056 19.3377 20.5185 13.5335C18.0356 8.17105 20.1868 5.70166 20.9485 5.04255L17.9659 1.08282C15.8119 2.01095 13.3764 2.27996 11.9998 0.747706C10.623 2.2801 8.18788 2.01095 6.03364 1.08282L3.05111 5.04255Z" fill="url(#paint0_linear_3534_896)"/>
<path fill-rule="evenodd" clip-rule="evenodd" d="M11.9998 22.8189C11.7139 22.8189 1.61838 18.8954 3.99172 13.7696C4.92674 11.7501 6.16256 7.94549 3.93449 5.15561C3.85433 5.05521 3.85222 4.91346 3.92957 4.81094L6.09464 1.9367C6.16945 1.83755 6.30093 1.79888 6.41695 1.8422C7.94977 2.40934 10.1341 2.83332 11.8379 1.63365C12.1393 1.42102 12.4633 1.88115 12.1616 2.09335C10.6967 3.12484 8.71449 3.24395 6.4192 2.44056L4.50768 4.97815C6.7418 7.98359 5.47279 11.9092 4.50191 14.006C2.69319 17.9125 9.47232 21.2935 12.0981 22.2742C12.3907 22.3836 12.3099 22.8189 11.9995 22.8189H11.9998Z" fill="url(#paint1_linear_3534_896)"/>
<path fill-rule="evenodd" clip-rule="evenodd" d="M13.1311 16.756H10.8685C10.5609 16.756 10.3109 16.5058 10.3109 16.1984V13.6892H7.80172C7.49417 13.6892 7.24414 13.439 7.24414 13.1316V10.8688C7.24414 10.5614 7.49431 10.3112 7.80172 10.3112L10.3109 10.3114V7.80205C10.3109 7.4945 10.5611 7.24446 10.8685 7.24446H13.1311C13.4386 7.24446 13.6887 7.49464 13.6887 7.80205V10.3112L16.1981 10.3114C16.5055 10.3114 16.7556 10.5615 16.7556 10.8689V13.1318C16.7556 13.4392 16.5055 13.6893 16.1981 13.6893H13.6889V16.1985C13.6889 16.5058 13.4387 16.7561 13.1311 16.7561V16.756ZM10.5919 13.1266C10.7471 13.1266 10.8731 13.2527 10.8731 13.4078V16.1982L13.1261 16.1933V13.4079C13.1261 13.2527 13.2522 13.1267 13.4073 13.1267H16.1979L16.193 10.8688L13.4073 10.8737C13.2521 10.8737 13.1261 10.7477 13.1261 10.5925L13.1259 7.8019L10.8683 7.80655L10.873 10.5922C10.873 10.7474 10.747 10.8734 10.5917 10.8734H7.80144L7.80608 13.1313L10.5916 13.1264L10.5919 13.1266Z" fill="url(#paint2_linear_3534_896)"/>
<defs>
<linearGradient id="paint0_linear_3534_896" x1="12.0001" y1="18.1615" x2="12" y2="0.00163811" gradientUnits="userSpaceOnUse">
<stop stop-color="#CFECED"/>
<stop offset="1" stop-color="#CFECED"/>
</linearGradient>
<linearGradient id="paint1_linear_3534_896" x1="7.95642" y1="17.6524" x2="7.95641" y2="1.57885" gradientUnits="userSpaceOnUse">
<stop stop-color="#CFECED"/>
<stop offset="1" stop-color="#CFECED"/>
</linearGradient>
<linearGradient id="paint2_linear_3534_896" x1="11.9999" y1="14.4425" x2="11.9999" y2="7.24446" gradientUnits="userSpaceOnUse">
<stop stop-color="#CFECED"/>
<stop offset="1" stop-color="#CFECED"/>
</linearGradient>
</defs>
</svg>
