<svg width="375" height="719" viewBox="0 0 375 719" fill="none" xmlns="http://www.w3.org/2000/svg">
<g opacity="0.5">
<path d="M14.6667 143C14.6667 143.736 15.2636 144.333 16 144.333C16.7364 144.333 17.3333 143.736 17.3333 143C17.3333 142.264 16.7364 141.667 16 141.667C15.2636 141.667 14.6667 142.264 14.6667 143ZM357.667 143C357.667 143.736 358.264 144.333 359 144.333C359.736 144.333 360.333 143.736 360.333 143C360.333 142.264 359.736 141.667 359 141.667C358.264 141.667 357.667 142.264 357.667 143ZM16 143.25H359V142.75H16V143.25Z" fill="url(#paint0_linear_5507_2097)"/>
<path d="M14.6667 207C14.6667 207.736 15.2636 208.333 16 208.333C16.7364 208.333 17.3333 207.736 17.3333 207C17.3333 206.264 16.7364 205.667 16 205.667C15.2636 205.667 14.6667 206.264 14.6667 207ZM357.667 207C357.667 207.736 358.264 208.333 359 208.333C359.736 208.333 360.333 207.736 360.333 207C360.333 206.264 359.736 205.667 359 205.667C358.264 205.667 357.667 206.264 357.667 207ZM16 207.25H359V206.75H16V207.25Z" fill="url(#paint1_linear_5507_2097)"/>
</g>
<g opacity="0.5">
<path d="M14.6667 283C14.6667 283.736 15.2636 284.333 16 284.333C16.7364 284.333 17.3333 283.736 17.3333 283C17.3333 282.264 16.7364 281.667 16 281.667C15.2636 281.667 14.6667 282.264 14.6667 283ZM357.667 283C357.667 283.736 358.264 284.333 359 284.333C359.736 284.333 360.333 283.736 360.333 283C360.333 282.264 359.736 281.667 359 281.667C358.264 281.667 357.667 282.264 357.667 283ZM16 283.25H359V282.75H16V283.25Z" fill="url(#paint2_linear_5507_2097)"/>
<path d="M14.6667 473C14.6667 473.736 15.2636 474.333 16 474.333C16.7364 474.333 17.3333 473.736 17.3333 473C17.3333 472.264 16.7364 471.667 16 471.667C15.2636 471.667 14.6667 472.264 14.6667 473ZM357.667 473C357.667 473.736 358.264 474.333 359 474.333C359.736 474.333 360.333 473.736 360.333 473C360.333 472.264 359.736 471.667 359 471.667C358.264 471.667 357.667 472.264 357.667 473ZM16 473.25H359V472.75H16V473.25Z" fill="url(#paint3_linear_5507_2097)"/>
</g>
<line opacity="0.5" x1="332.75" y1="719" x2="332.75" y2="473" stroke="url(#paint4_linear_5507_2097)" stroke-width="0.5"/>
<line opacity="0.5" x1="42.75" y1="719" x2="42.75" y2="473" stroke="url(#paint5_linear_5507_2097)" stroke-width="0.5"/>
<g opacity="0.5">
<line y1="0.75" x2="375" y2="0.75" stroke="url(#paint6_linear_5507_2097)" stroke-width="0.5"/>
<line y1="40.75" x2="375" y2="40.75" stroke="url(#paint7_linear_5507_2097)" stroke-width="0.5"/>
</g>
<g opacity="0.5">
<path d="M352.726 504.757H351.373C351.935 503.479 351.875 502.445 351.662 501.745C351.297 500.498 350.065 499.144 348.24 499.144C347.753 499.144 347.266 499.236 346.764 499.418C345.897 499.738 345.319 500.087 345.061 500.27C344.802 500.087 344.24 499.738 343.357 499.418C342.856 499.236 342.354 499.144 341.882 499.144C340.057 499.144 338.825 500.498 338.46 501.745C338.247 502.49 338.171 503.616 338.886 505.03H337.243C337.106 505.03 337 505.137 337 505.274C337 505.411 337.106 505.517 337.243 505.517H339.175C339.251 505.654 339.342 505.791 339.449 505.928C341.03 508.209 344.468 510.688 345.091 510.84V510.856C345.091 510.856 345.106 510.856 345.122 510.84C345.137 510.84 345.152 510.84 345.167 510.84V510.825C345.7 510.567 349 508.437 350.734 505.913C350.901 505.684 351.038 505.456 351.16 505.228H352.757C352.894 505.228 353 505.122 353 504.985C353 504.848 352.863 504.757 352.726 504.757ZM350.293 505.654C348.681 508.011 345.715 509.913 345.076 510.323C344.422 509.913 341.471 507.996 339.844 505.654C339.814 505.608 339.783 505.563 339.753 505.517H341.989C342.08 505.517 342.171 505.471 342.217 505.38L343.236 503.373L344.833 507.464C344.863 507.555 344.97 507.616 345.061 507.616C345.061 507.616 345.061 507.616 345.076 507.616C345.183 507.616 345.274 507.54 345.304 507.433L346.703 502.643L347.449 505.061C347.479 505.152 347.555 505.213 347.646 505.228C347.738 505.243 347.829 505.198 347.89 505.122L348.483 504.255L348.985 505.106C349.03 505.183 349.106 505.228 349.198 505.228H350.567C350.475 505.38 350.384 505.517 350.293 505.654ZM350.84 504.757H349.35L348.726 503.692C348.681 503.616 348.605 503.57 348.513 503.57C348.422 503.57 348.346 503.601 348.3 503.677L347.783 504.437L346.947 501.715C346.916 501.608 346.81 501.548 346.703 501.532C346.597 501.532 346.49 501.608 346.46 501.715L345.046 506.597L343.51 502.673C343.479 502.582 343.388 502.521 343.297 502.521C343.19 502.521 343.114 502.567 343.068 502.658L341.867 505.015H339.449C338.84 503.905 338.673 502.84 338.947 501.882C339.266 500.802 340.316 499.646 341.897 499.646C342.323 499.646 342.764 499.738 343.205 499.89C344.316 500.3 344.909 500.772 344.924 500.772C345.015 500.848 345.137 500.848 345.228 500.772C345.228 500.772 345.821 500.3 346.947 499.89C347.388 499.722 347.829 499.646 348.255 499.646C349.821 499.646 350.886 500.802 351.205 501.882C351.464 502.764 351.327 503.738 350.84 504.757Z" fill="url(#paint8_linear_5507_2097)"/>
<path fill-rule="evenodd" clip-rule="evenodd" d="M345 536.999C344.678 536.999 337.027 534.083 338.981 529.865C340.779 525.982 338.693 524.567 338.671 524.553C338.58 524.494 338.558 524.37 338.624 524.283L340.812 521.378C340.865 521.308 340.959 521.283 341.039 521.32C341.825 521.674 342.535 521.854 343.149 521.854C344.401 521.854 344.832 521.105 344.836 521.097C344.904 520.973 345.089 520.965 345.164 521.097C345.181 521.127 345.611 521.854 346.851 521.854C347.465 521.854 348.175 521.674 348.961 521.32C349.04 521.284 349.135 521.308 349.187 521.378L351.376 524.283C351.442 524.37 351.419 524.494 351.329 524.553C351.243 524.61 349.23 526 351.019 529.865C352.972 534.083 345.322 536.999 345 536.999ZM339.034 524.362C339.542 524.801 340.976 526.447 339.321 530.022C337.529 533.892 344.874 536.619 345 536.619C345.126 536.619 352.47 533.892 350.679 530.022C349.024 526.447 350.458 524.801 350.966 524.362L348.977 521.722C347.541 522.341 345.918 522.52 345 521.498C344.082 522.52 342.459 522.341 341.022 521.722L339.034 524.362Z" fill="url(#paint9_linear_5507_2097)"/>
<path fill-rule="evenodd" clip-rule="evenodd" d="M345 536.213C344.809 536.213 338.079 533.597 339.661 530.18C340.284 528.833 341.108 526.297 339.623 524.437C339.569 524.37 339.568 524.276 339.62 524.207L341.063 522.291C341.113 522.225 341.201 522.199 341.278 522.228C342.3 522.606 343.756 522.889 344.892 522.089C345.093 521.947 345.309 522.254 345.108 522.396C344.131 523.083 342.81 523.163 341.279 522.627L340.005 524.319C341.494 526.322 340.648 528.939 340.001 530.337C338.795 532.942 343.315 535.196 345.065 535.849C345.26 535.922 345.206 536.213 345 536.213H345Z" fill="url(#paint10_linear_5507_2097)"/>
<path fill-rule="evenodd" clip-rule="evenodd" d="M345.754 532.171H344.246C344.041 532.171 343.874 532.004 343.874 531.799V530.126H342.201C341.996 530.126 341.829 529.959 341.829 529.754V528.246C341.829 528.041 341.996 527.874 342.201 527.874L343.874 527.874V526.201C343.874 525.996 344.041 525.83 344.246 525.83H345.754C345.959 525.83 346.126 525.996 346.126 526.201V527.874L347.799 527.874C348.004 527.874 348.17 528.041 348.17 528.246V529.755C348.17 529.959 348.004 530.126 347.799 530.126H346.126V531.799C346.126 532.004 345.959 532.171 345.754 532.171V532.171ZM344.061 529.751C344.165 529.751 344.249 529.835 344.249 529.939V531.799L345.751 531.796V529.939C345.751 529.835 345.835 529.751 345.938 529.751H347.799L347.795 528.246L345.938 528.249C345.835 528.249 345.751 528.165 345.751 528.062L345.751 526.201L344.245 526.204L344.249 528.061C344.249 528.165 344.165 528.249 344.061 528.249H342.201L342.204 529.754L344.061 529.751L344.061 529.751Z" fill="url(#paint11_linear_5507_2097)"/>
<path d="M352.726 552.757H351.373C351.935 551.479 351.875 550.445 351.662 549.745C351.297 548.498 350.065 547.144 348.24 547.144C347.753 547.144 347.266 547.236 346.764 547.418C345.897 547.738 345.319 548.087 345.061 548.27C344.802 548.087 344.24 547.738 343.357 547.418C342.856 547.236 342.354 547.144 341.882 547.144C340.057 547.144 338.825 548.498 338.46 549.745C338.247 550.49 338.171 551.616 338.886 553.03H337.243C337.106 553.03 337 553.137 337 553.274C337 553.411 337.106 553.517 337.243 553.517H339.175C339.251 553.654 339.342 553.791 339.449 553.928C341.03 556.209 344.468 558.688 345.091 558.84V558.856C345.091 558.856 345.106 558.856 345.122 558.84C345.137 558.84 345.152 558.84 345.167 558.84V558.825C345.7 558.567 349 556.437 350.734 553.913C350.901 553.684 351.038 553.456 351.16 553.228H352.757C352.894 553.228 353 553.122 353 552.985C353 552.848 352.863 552.757 352.726 552.757ZM350.293 553.654C348.681 556.011 345.715 557.913 345.076 558.323C344.422 557.913 341.471 555.996 339.844 553.654C339.814 553.608 339.783 553.563 339.753 553.517H341.989C342.08 553.517 342.171 553.471 342.217 553.38L343.236 551.373L344.833 555.464C344.863 555.555 344.97 555.616 345.061 555.616C345.061 555.616 345.061 555.616 345.076 555.616C345.183 555.616 345.274 555.54 345.304 555.433L346.703 550.643L347.449 553.061C347.479 553.152 347.555 553.213 347.646 553.228C347.738 553.243 347.829 553.198 347.89 553.122L348.483 552.255L348.985 553.106C349.03 553.183 349.106 553.228 349.198 553.228H350.567C350.475 553.38 350.384 553.517 350.293 553.654ZM350.84 552.757H349.35L348.726 551.692C348.681 551.616 348.605 551.57 348.513 551.57C348.422 551.57 348.346 551.601 348.3 551.677L347.783 552.437L346.947 549.715C346.916 549.608 346.81 549.548 346.703 549.532C346.597 549.532 346.49 549.608 346.46 549.715L345.046 554.597L343.51 550.673C343.479 550.582 343.388 550.521 343.297 550.521C343.19 550.521 343.114 550.567 343.068 550.658L341.867 553.015H339.449C338.84 551.905 338.673 550.84 338.947 549.882C339.266 548.802 340.316 547.646 341.897 547.646C342.323 547.646 342.764 547.738 343.205 547.89C344.316 548.3 344.909 548.772 344.924 548.772C345.015 548.848 345.137 548.848 345.228 548.772C345.228 548.772 345.821 548.3 346.947 547.89C347.388 547.722 347.829 547.646 348.255 547.646C349.821 547.646 350.886 548.802 351.205 549.882C351.464 550.764 351.327 551.738 350.84 552.757Z" fill="url(#paint12_linear_5507_2097)"/>
</g>
<g opacity="0.5">
<path d="M38.7262 504.757H37.3726C37.9354 503.479 37.8745 502.445 37.6616 501.745C37.2966 500.498 36.0646 499.144 34.2395 499.144C33.7529 499.144 33.2662 499.236 32.7643 499.418C31.8973 499.738 31.3194 500.087 31.0608 500.27C30.8023 500.087 30.2395 499.738 29.3574 499.418C28.8555 499.236 28.3536 499.144 27.8821 499.144C26.057 499.144 24.8251 500.498 24.4601 501.745C24.2471 502.49 24.1711 503.616 24.8859 505.03H23.2433C23.1065 505.03 23 505.137 23 505.274C23 505.411 23.1065 505.517 23.2433 505.517H25.1749C25.251 505.654 25.3422 505.791 25.4487 505.928C27.0304 508.209 30.4677 510.688 31.0913 510.84V510.856C31.0913 510.856 31.1065 510.856 31.1217 510.84C31.1369 510.84 31.1521 510.84 31.1673 510.84V510.825C31.6996 510.567 35 508.437 36.7338 505.913C36.9011 505.684 37.038 505.456 37.1597 505.228H38.7567C38.8935 505.228 39 505.122 39 504.985C39 504.848 38.8631 504.757 38.7262 504.757ZM36.2928 505.654C34.6806 508.011 31.7148 509.913 31.076 510.323C30.4221 509.913 27.4715 507.996 25.8441 505.654C25.8137 505.608 25.7833 505.563 25.7529 505.517H27.9886C28.0798 505.517 28.1711 505.471 28.2167 505.38L29.2357 503.373L30.8327 507.464C30.8631 507.555 30.9696 507.616 31.0608 507.616C31.0608 507.616 31.0608 507.616 31.076 507.616C31.1825 507.616 31.2738 507.54 31.3042 507.433L32.7034 502.643L33.4487 505.061C33.4791 505.152 33.5551 505.213 33.6464 505.228C33.7376 505.243 33.8289 505.198 33.8897 505.122L34.4829 504.255L34.9848 505.106C35.0304 505.183 35.1065 505.228 35.1977 505.228H36.5665C36.4753 505.38 36.384 505.517 36.2928 505.654ZM36.8403 504.757H35.3498L34.7262 503.692C34.6806 503.616 34.6046 503.57 34.5133 503.57C34.4221 503.57 34.346 503.601 34.3004 503.677L33.7833 504.437L32.9468 501.715C32.9164 501.608 32.8099 501.548 32.7034 501.532C32.597 501.532 32.4905 501.608 32.4601 501.715L31.0456 506.597L29.5095 502.673C29.4791 502.582 29.3878 502.521 29.2966 502.521C29.1901 502.521 29.1141 502.567 29.0684 502.658L27.8669 505.015H25.4487C24.8403 503.905 24.673 502.84 24.9468 501.882C25.2662 500.802 26.3156 499.646 27.8973 499.646C28.3232 499.646 28.7643 499.738 29.2053 499.89C30.3156 500.3 30.9087 500.772 30.924 500.772C31.0152 500.848 31.1369 500.848 31.2281 500.772C31.2281 500.772 31.8213 500.3 32.9468 499.89C33.3878 499.722 33.8289 499.646 34.2548 499.646C35.8213 499.646 36.8859 500.802 37.2053 501.882C37.4639 502.764 37.327 503.738 36.8403 504.757Z" fill="url(#paint13_linear_5507_2097)"/>
<path fill-rule="evenodd" clip-rule="evenodd" d="M30.9998 536.999C30.6777 536.999 23.0275 534.083 24.9806 529.865C26.7786 525.982 24.6926 524.567 24.6712 524.553C24.5802 524.494 24.5583 524.37 24.6236 524.283L26.8123 521.378C26.8651 521.308 26.9593 521.283 27.0392 521.32C27.825 521.674 28.5347 521.854 29.1489 521.854C30.4015 521.854 30.8319 521.105 30.836 521.097C30.9042 520.973 31.089 520.965 31.1637 521.097C31.1808 521.127 31.6112 521.854 32.851 521.854C33.4651 521.854 34.1747 521.674 34.9607 521.32C35.0403 521.284 35.1347 521.308 35.1874 521.378L37.3762 524.283C37.4418 524.37 37.4194 524.494 37.3287 524.553C37.2428 524.61 35.2299 526 37.0192 529.865C38.972 534.083 31.3219 536.999 30.9998 536.999ZM25.034 524.362C25.542 524.801 26.976 526.447 25.3208 530.022C23.5291 533.892 30.8738 536.619 30.9998 536.619C31.1256 536.619 38.4703 533.892 36.6789 530.022C35.0237 526.447 36.4578 524.801 36.9656 524.362L34.9772 521.722C33.5412 522.341 31.9175 522.52 30.9998 521.498C30.0819 522.52 28.4585 522.341 27.0223 521.722L25.034 524.362Z" fill="url(#paint14_linear_5507_2097)"/>
<path fill-rule="evenodd" clip-rule="evenodd" d="M30.9998 536.213C30.8092 536.213 24.0788 533.597 25.6611 530.18C26.2844 528.833 27.1083 526.297 25.6229 524.437C25.5695 524.37 25.5681 524.276 25.6196 524.207L27.063 522.291C27.1129 522.225 27.2005 522.199 27.2779 522.228C28.2998 522.606 29.756 522.889 30.8919 522.089C31.0928 521.947 31.3088 522.254 31.1077 522.396C30.1311 523.083 28.8096 523.163 27.2794 522.627L26.005 524.319C27.4944 526.322 26.6484 528.939 26.0012 530.337C24.7954 532.942 29.3148 535.196 31.0653 535.849C31.2604 535.922 31.2065 536.213 30.9996 536.213H30.9998Z" fill="url(#paint15_linear_5507_2097)"/>
<path fill-rule="evenodd" clip-rule="evenodd" d="M31.754 532.171H30.2456C30.0405 532.171 29.8739 532.004 29.8739 531.799V530.126H28.2011C27.996 530.126 27.8293 529.959 27.8293 529.754V528.246C27.8293 528.041 27.9961 527.874 28.2011 527.874L29.8739 527.874V526.201C29.8739 525.996 30.0406 525.83 30.2456 525.83H31.754C31.959 525.83 32.1257 525.996 32.1257 526.201V527.874L33.7986 527.874C34.0036 527.874 34.1703 528.041 34.1703 528.246V529.755C34.1703 529.959 34.0036 530.126 33.7986 530.126H32.1258V531.799C32.1258 532.004 31.959 532.171 31.754 532.171V532.171ZM30.0612 529.751C30.1647 529.751 30.2487 529.835 30.2487 529.939V531.799L31.7506 531.796V529.939C31.7506 529.835 31.8347 529.751 31.9381 529.751H33.7985L33.7952 528.246L31.9381 528.249C31.8346 528.249 31.7506 528.165 31.7506 528.062L31.7505 526.201L30.2455 526.204L30.2486 528.061C30.2486 528.165 30.1646 528.249 30.0611 528.249H28.2009L28.204 529.754L30.061 529.751L30.0612 529.751Z" fill="url(#paint16_linear_5507_2097)"/>
<path d="M38.7262 552.757H37.3726C37.9354 551.479 37.8745 550.445 37.6616 549.745C37.2966 548.498 36.0646 547.144 34.2395 547.144C33.7529 547.144 33.2662 547.236 32.7643 547.418C31.8973 547.738 31.3194 548.087 31.0608 548.27C30.8023 548.087 30.2395 547.738 29.3574 547.418C28.8555 547.236 28.3536 547.144 27.8821 547.144C26.057 547.144 24.8251 548.498 24.4601 549.745C24.2471 550.49 24.1711 551.616 24.8859 553.03H23.2433C23.1065 553.03 23 553.137 23 553.274C23 553.411 23.1065 553.517 23.2433 553.517H25.1749C25.251 553.654 25.3422 553.791 25.4487 553.928C27.0304 556.209 30.4677 558.688 31.0913 558.84V558.856C31.0913 558.856 31.1065 558.856 31.1217 558.84C31.1369 558.84 31.1521 558.84 31.1673 558.84V558.825C31.6996 558.567 35 556.437 36.7338 553.913C36.9011 553.684 37.038 553.456 37.1597 553.228H38.7567C38.8935 553.228 39 553.122 39 552.985C39 552.848 38.8631 552.757 38.7262 552.757ZM36.2928 553.654C34.6806 556.011 31.7148 557.913 31.076 558.323C30.4221 557.913 27.4715 555.996 25.8441 553.654C25.8137 553.608 25.7833 553.563 25.7529 553.517H27.9886C28.0798 553.517 28.1711 553.471 28.2167 553.38L29.2357 551.373L30.8327 555.464C30.8631 555.555 30.9696 555.616 31.0608 555.616C31.0608 555.616 31.0608 555.616 31.076 555.616C31.1825 555.616 31.2738 555.54 31.3042 555.433L32.7034 550.643L33.4487 553.061C33.4791 553.152 33.5551 553.213 33.6464 553.228C33.7376 553.243 33.8289 553.198 33.8897 553.122L34.4829 552.255L34.9848 553.106C35.0304 553.183 35.1065 553.228 35.1977 553.228H36.5665C36.4753 553.38 36.384 553.517 36.2928 553.654ZM36.8403 552.757H35.3498L34.7262 551.692C34.6806 551.616 34.6046 551.57 34.5133 551.57C34.4221 551.57 34.346 551.601 34.3004 551.677L33.7833 552.437L32.9468 549.715C32.9164 549.608 32.8099 549.548 32.7034 549.532C32.597 549.532 32.4905 549.608 32.4601 549.715L31.0456 554.597L29.5095 550.673C29.4791 550.582 29.3878 550.521 29.2966 550.521C29.1901 550.521 29.1141 550.567 29.0684 550.658L27.8669 553.015H25.4487C24.8403 551.905 24.673 550.84 24.9468 549.882C25.2662 548.802 26.3156 547.646 27.8973 547.646C28.3232 547.646 28.7643 547.738 29.2053 547.89C30.3156 548.3 30.9087 548.772 30.924 548.772C31.0152 548.848 31.1369 548.848 31.2281 548.772C31.2281 548.772 31.8213 548.3 32.9468 547.89C33.3878 547.722 33.8289 547.646 34.2548 547.646C35.8213 547.646 36.8859 548.802 37.2053 549.882C37.4639 550.764 37.327 551.738 36.8403 552.757Z" fill="url(#paint17_linear_5507_2097)"/>
</g>
<defs>
<linearGradient id="paint0_linear_5507_2097" x1="16" y1="143.721" x2="359" y2="143.721" gradientUnits="userSpaceOnUse">
<stop stop-color="#066A6F" stop-opacity="0.1"/>
<stop offset="0.505" stop-color="#CED2D4" stop-opacity="0.5"/>
<stop offset="0.91" stop-color="#066A6F" stop-opacity="0.1"/>
</linearGradient>
<linearGradient id="paint1_linear_5507_2097" x1="16" y1="207.721" x2="359" y2="207.721" gradientUnits="userSpaceOnUse">
<stop stop-color="#066A6F" stop-opacity="0.1"/>
<stop offset="0.505" stop-color="#CED2D4" stop-opacity="0.5"/>
<stop offset="0.91" stop-color="#066A6F" stop-opacity="0.1"/>
</linearGradient>
<linearGradient id="paint2_linear_5507_2097" x1="16" y1="283.721" x2="359" y2="283.721" gradientUnits="userSpaceOnUse">
<stop stop-color="#066A6F" stop-opacity="0.1"/>
<stop offset="0.505" stop-color="#CED2D4" stop-opacity="0.5"/>
<stop offset="0.91" stop-color="#066A6F" stop-opacity="0.1"/>
</linearGradient>
<linearGradient id="paint3_linear_5507_2097" x1="16" y1="473.721" x2="359" y2="473.721" gradientUnits="userSpaceOnUse">
<stop stop-color="#066A6F" stop-opacity="0.1"/>
<stop offset="0.505" stop-color="#CED2D4" stop-opacity="0.5"/>
<stop offset="0.91" stop-color="#066A6F" stop-opacity="0.1"/>
</linearGradient>
<linearGradient id="paint4_linear_5507_2097" x1="333.471" y1="719" x2="333.471" y2="473" gradientUnits="userSpaceOnUse">
<stop stop-color="#066A6F" stop-opacity="0.1"/>
<stop offset="0.505" stop-color="#CED2D4" stop-opacity="0.5"/>
<stop offset="0.91" stop-color="#066A6F" stop-opacity="0.1"/>
</linearGradient>
<linearGradient id="paint5_linear_5507_2097" x1="43.4711" y1="719" x2="43.4709" y2="473" gradientUnits="userSpaceOnUse">
<stop stop-color="#066A6F" stop-opacity="0.1"/>
<stop offset="0.505" stop-color="#CED2D4" stop-opacity="0.5"/>
<stop offset="0.91" stop-color="#066A6F" stop-opacity="0.1"/>
</linearGradient>
<linearGradient id="paint6_linear_5507_2097" x1="7.05263e-10" y1="1.47111" x2="375" y2="1.47064" gradientUnits="userSpaceOnUse">
<stop stop-color="#066A6F" stop-opacity="0.1"/>
<stop offset="0.505" stop-color="#CED2D4" stop-opacity="0.5"/>
<stop offset="0.91" stop-color="#066A6F" stop-opacity="0.1"/>
</linearGradient>
<linearGradient id="paint7_linear_5507_2097" x1="7.05263e-10" y1="41.4711" x2="375" y2="41.4706" gradientUnits="userSpaceOnUse">
<stop stop-color="#066A6F" stop-opacity="0.1"/>
<stop offset="0.505" stop-color="#CED2D4" stop-opacity="0.5"/>
<stop offset="0.91" stop-color="#066A6F" stop-opacity="0.1"/>
</linearGradient>
<linearGradient id="paint8_linear_5507_2097" x1="345" y1="508.007" x2="345" y2="499.144" gradientUnits="userSpaceOnUse">
<stop stop-color="#CFECED"/>
<stop offset="1" stop-color="#CFECED"/>
</linearGradient>
<linearGradient id="paint9_linear_5507_2097" x1="345" y1="533.108" x2="345" y2="521.001" gradientUnits="userSpaceOnUse">
<stop stop-color="#CFECED"/>
<stop offset="1" stop-color="#CFECED"/>
</linearGradient>
<linearGradient id="paint10_linear_5507_2097" x1="342.304" y1="532.768" x2="342.304" y2="522.053" gradientUnits="userSpaceOnUse">
<stop stop-color="#CFECED"/>
<stop offset="1" stop-color="#CFECED"/>
</linearGradient>
<linearGradient id="paint11_linear_5507_2097" x1="345" y1="530.628" x2="345" y2="525.83" gradientUnits="userSpaceOnUse">
<stop stop-color="#CFECED"/>
<stop offset="1" stop-color="#CFECED"/>
</linearGradient>
<linearGradient id="paint12_linear_5507_2097" x1="345" y1="556.007" x2="345" y2="547.144" gradientUnits="userSpaceOnUse">
<stop stop-color="#CFECED"/>
<stop offset="1" stop-color="#CFECED"/>
</linearGradient>
<linearGradient id="paint13_linear_5507_2097" x1="31" y1="508.007" x2="31" y2="499.144" gradientUnits="userSpaceOnUse">
<stop stop-color="#CFECED"/>
<stop offset="1" stop-color="#CFECED"/>
</linearGradient>
<linearGradient id="paint14_linear_5507_2097" x1="31" y1="533.108" x2="30.9999" y2="521.001" gradientUnits="userSpaceOnUse">
<stop stop-color="#CFECED"/>
<stop offset="1" stop-color="#CFECED"/>
</linearGradient>
<linearGradient id="paint15_linear_5507_2097" x1="28.3042" y1="532.768" x2="28.3042" y2="522.053" gradientUnits="userSpaceOnUse">
<stop stop-color="#CFECED"/>
<stop offset="1" stop-color="#CFECED"/>
</linearGradient>
<linearGradient id="paint16_linear_5507_2097" x1="30.9998" y1="530.628" x2="30.9998" y2="525.83" gradientUnits="userSpaceOnUse">
<stop stop-color="#CFECED"/>
<stop offset="1" stop-color="#CFECED"/>
</linearGradient>
<linearGradient id="paint17_linear_5507_2097" x1="31" y1="556.007" x2="31" y2="547.144" gradientUnits="userSpaceOnUse">
<stop stop-color="#CFECED"/>
<stop offset="1" stop-color="#CFECED"/>
</linearGradient>
</defs>
</svg>
