<svg width="375" height="225" viewBox="0 0 375 225" fill="none" xmlns="http://www.w3.org/2000/svg">
<g opacity="0.5" filter="url(#filter0_f_5502_2039)">
<path d="M180.5 381.353C329.31 381.353 449.944 314.816 449.944 232.738C449.944 150.66 329.31 84.1222 180.5 84.1222C31.6898 84.1222 -88.9446 150.66 -88.9446 232.738C-88.9446 314.816 31.6898 381.353 180.5 381.353Z" fill="url(#paint0_linear_5502_2039)"/>
</g>
<path d="M180.5 381.353C336.751 381.353 463.417 314.816 463.417 232.738C463.417 150.66 336.751 84.1222 180.5 84.1222C24.2494 84.1222 -102.417 150.66 -102.417 232.738C-102.417 314.816 24.2494 381.353 180.5 381.353Z" fill="url(#paint1_linear_5502_2039)"/>
<g filter="url(#filter1_f_5502_2039)">
<path d="M180.5 381.353C336.751 381.353 463.417 315.771 463.417 234.872C463.417 153.973 336.751 88.3912 180.5 88.3912C24.2494 88.3912 -102.417 153.973 -102.417 234.872C-102.417 315.771 24.2494 381.353 180.5 381.353Z" fill="#041C1E"/>
</g>
<defs>
<filter id="filter0_f_5502_2039" x="-208.945" y="-35.8778" width="778.889" height="537.231" filterUnits="userSpaceOnUse" color-interpolation-filters="sRGB">
<feFlood flood-opacity="0" result="BackgroundImageFix"/>
<feBlend mode="normal" in="SourceGraphic" in2="BackgroundImageFix" result="shape"/>
<feGaussianBlur stdDeviation="60" result="effect1_foregroundBlur_5502_2039"/>
</filter>
<filter id="filter1_f_5502_2039" x="-122.417" y="68.3912" width="605.833" height="332.962" filterUnits="userSpaceOnUse" color-interpolation-filters="sRGB">
<feFlood flood-opacity="0" result="BackgroundImageFix"/>
<feBlend mode="normal" in="SourceGraphic" in2="BackgroundImageFix" result="shape"/>
<feGaussianBlur stdDeviation="10" result="effect1_foregroundBlur_5502_2039"/>
</filter>
<linearGradient id="paint0_linear_5502_2039" x1="449.944" y1="232.738" x2="-88.9446" y2="232.738" gradientUnits="userSpaceOnUse">
<stop offset="0.196869" stop-color="#90FAFF" stop-opacity="0"/>
<stop offset="0.501428" stop-color="#8CFAFF"/>
<stop offset="0.801834" stop-color="#93FAFF" stop-opacity="0"/>
</linearGradient>
<linearGradient id="paint1_linear_5502_2039" x1="463.417" y1="232.738" x2="-102.417" y2="232.738" gradientUnits="userSpaceOnUse">
<stop offset="0.196869" stop-color="#8DFAFF"/>
<stop offset="0.501428" stop-color="#CFECED"/>
<stop offset="0.801834" stop-color="#CFECED"/>
</linearGradient>
</defs>
</svg>
