<svg width="1405" height="333" viewBox="0 0 1405 333" fill="none" xmlns="http://www.w3.org/2000/svg">
<mask id="mask0_3534_876" style="mask-type:luminance" maskUnits="userSpaceOnUse" x="0" y="12" width="1440" height="321">
<path d="M1440 12.6857H0V333H1440V12.6857Z" fill="white"/>
</mask>
<g mask="url(#mask0_3534_876)">
<g opacity="0.5" filter="url(#filter0_f_3534_876)">
<path d="M720 556.457C1161.83 556.457 1520 461.363 1520 344.058C1520 226.754 1161.83 131.66 720 131.66C278.172 131.66 -80 226.754 -80 344.058C-80 461.363 278.172 556.457 720 556.457Z" fill="url(#paint0_linear_3534_876)"/>
</g>
<path d="M720 556.457C1183.92 556.457 1560 461.363 1560 344.058C1560 226.754 1183.92 131.66 720 131.66C256.081 131.66 -120 226.754 -120 344.058C-120 461.363 256.081 556.457 720 556.457Z" fill="url(#paint1_linear_3534_876)"/>
<g filter="url(#filter1_f_3534_876)">
<path d="M720 556.457C1183.92 556.457 1560 462.729 1560 347.109C1560 231.489 1183.92 137.761 720 137.761C256.081 137.761 -120 231.489 -120 347.109C-120 462.729 256.081 556.457 720 556.457Z" fill="#041C1E"/>
</g>
</g>
<defs>
<filter id="filter0_f_3534_876" x="-200" y="11.6596" width="1840" height="664.798" filterUnits="userSpaceOnUse" color-interpolation-filters="sRGB">
<feFlood flood-opacity="0" result="BackgroundImageFix"/>
<feBlend mode="normal" in="SourceGraphic" in2="BackgroundImageFix" result="shape"/>
<feGaussianBlur stdDeviation="60" result="effect1_foregroundBlur_3534_876"/>
</filter>
<filter id="filter1_f_3534_876" x="-140" y="117.761" width="1720" height="458.696" filterUnits="userSpaceOnUse" color-interpolation-filters="sRGB">
<feFlood flood-opacity="0" result="BackgroundImageFix"/>
<feBlend mode="normal" in="SourceGraphic" in2="BackgroundImageFix" result="shape"/>
<feGaussianBlur stdDeviation="10" result="effect1_foregroundBlur_3534_876"/>
</filter>
<linearGradient id="paint0_linear_3534_876" x1="1520" y1="344.058" x2="-80" y2="344.058" gradientUnits="userSpaceOnUse">
<stop offset="0.196869" stop-color="#90FAFF" stop-opacity="0"/>
<stop offset="0.501428" stop-color="#8CFAFF"/>
<stop offset="0.801834" stop-color="#93FAFF" stop-opacity="0"/>
</linearGradient>
<linearGradient id="paint1_linear_3534_876" x1="1560" y1="344.058" x2="-120" y2="344.058" gradientUnits="userSpaceOnUse">
<stop offset="0.196869" stop-color="#8DFAFF"/>
<stop offset="0.501428" stop-color="#CFECED"/>
<stop offset="0.801834" stop-color="#CFECED"/>
</linearGradient>
</defs>
</svg>
