<svg width="1440" height="321" viewBox="0 0 1440 321" fill="none" xmlns="http://www.w3.org/2000/svg">
<mask id="mask0_5540_328" style="mask-type:luminance" maskUnits="userSpaceOnUse" x="0" y="0" width="1440" height="321">
<path d="M1440 0.685715H0V321H1440V0.685715Z" fill="white"/>
</mask>
<g mask="url(#mask0_5540_328)">
<g opacity="0.5" filter="url(#filter0_f_5540_328)">
<path d="M720 544.457C1161.83 544.457 1520 449.363 1520 332.058C1520 214.754 1161.83 119.66 720 119.66C278.172 119.66 -80 214.754 -80 332.058C-80 449.363 278.172 544.457 720 544.457Z" fill="url(#paint0_linear_5540_328)"/>
</g>
<path d="M720 544.457C1183.92 544.457 1560 449.363 1560 332.058C1560 214.754 1183.92 119.66 720 119.66C256.081 119.66 -120 214.754 -120 332.058C-120 449.363 256.081 544.457 720 544.457Z" fill="url(#paint1_linear_5540_328)"/>
<g filter="url(#filter1_f_5540_328)">
<path d="M720 544.457C1183.92 544.457 1560 450.729 1560 335.109C1560 219.489 1183.92 125.761 720 125.761C256.081 125.761 -120 219.489 -120 335.109C-120 450.729 256.081 544.457 720 544.457Z" fill="#041C1E"/>
</g>
</g>
<defs>
<filter id="filter0_f_5540_328" x="-200" y="-0.340424" width="1840" height="664.798" filterUnits="userSpaceOnUse" color-interpolation-filters="sRGB">
<feFlood flood-opacity="0" result="BackgroundImageFix"/>
<feBlend mode="normal" in="SourceGraphic" in2="BackgroundImageFix" result="shape"/>
<feGaussianBlur stdDeviation="60" result="effect1_foregroundBlur_5540_328"/>
</filter>
<filter id="filter1_f_5540_328" x="-140" y="105.761" width="1720" height="458.696" filterUnits="userSpaceOnUse" color-interpolation-filters="sRGB">
<feFlood flood-opacity="0" result="BackgroundImageFix"/>
<feBlend mode="normal" in="SourceGraphic" in2="BackgroundImageFix" result="shape"/>
<feGaussianBlur stdDeviation="10" result="effect1_foregroundBlur_5540_328"/>
</filter>
<linearGradient id="paint0_linear_5540_328" x1="1520" y1="332.058" x2="-80" y2="332.058" gradientUnits="userSpaceOnUse">
<stop offset="0.196869" stop-color="#90FAFF" stop-opacity="0"/>
<stop offset="0.501428" stop-color="#8CFAFF"/>
<stop offset="0.801834" stop-color="#93FAFF" stop-opacity="0"/>
</linearGradient>
<linearGradient id="paint1_linear_5540_328" x1="1560" y1="332.058" x2="-120" y2="332.058" gradientUnits="userSpaceOnUse">
<stop offset="0.196869" stop-color="#8DFAFF"/>
<stop offset="0.501428" stop-color="#CFECED"/>
<stop offset="0.801834" stop-color="#CFECED"/>
</linearGradient>
</defs>
</svg>
